<svg xmlns="http://www.w3.org/2000/svg" xmlns:xlink="http://www.w3.org/1999/xlink" viewBox="0 0 348.83 377.64"><defs><style>.cls-1{fill:url(#radial-gradient);}.cls-2{fill:url(#linear-gradient);}.cls-3{fill:url(#linear-gradient-2);}.cls-4{fill:url(#linear-gradient-3);}.cls-5{fill:url(#linear-gradient-4);}.cls-6{fill:url(#linear-gradient-5);}.cls-7{fill:url(#linear-gradient-6);}.cls-8{fill:url(#linear-gradient-7);}.cls-9{fill:url(#linear-gradient-8);}.cls-10{fill:url(#linear-gradient-9);}.cls-11{fill:url(#linear-gradient-10);}.cls-12{fill:url(#linear-gradient-11);}.cls-13{fill:url(#linear-gradient-12);}.cls-14{fill:url(#linear-gradient-13);}.cls-15{fill:url(#linear-gradient-14);}.cls-16{fill:url(#linear-gradient-15);}.cls-17{fill:url(#linear-gradient-16);}.cls-18{fill:url(#linear-gradient-17);}.cls-19{fill:url(#linear-gradient-18);}.cls-20{fill:url(#linear-gradient-19);}.cls-21{fill:url(#linear-gradient-20);}.cls-22{fill:url(#linear-gradient-21);}.cls-23{fill:url(#linear-gradient-22);}.cls-24{fill:url(#linear-gradient-23);}.cls-25{fill:url(#linear-gradient-24);}.cls-26{fill:url(#linear-gradient-25);}.cls-27{fill:url(#linear-gradient-26);}.cls-28{fill:url(#linear-gradient-27);}.cls-29{fill:url(#linear-gradient-28);}.cls-30{fill:url(#linear-gradient-29);}.cls-31{fill:url(#linear-gradient-30);}.cls-32{fill:url(#linear-gradient-31);}.cls-33{fill:url(#linear-gradient-32);}.cls-34{fill:url(#linear-gradient-33);}.cls-35{fill:url(#linear-gradient-34);}.cls-36{fill:url(#linear-gradient-35);}.cls-37{fill:url(#linear-gradient-36);}.cls-38{fill:url(#linear-gradient-37);}.cls-39{fill:url(#linear-gradient-38);}.cls-40{fill:url(#linear-gradient-39);}.cls-41{fill:url(#linear-gradient-40);}.cls-42{fill:url(#linear-gradient-41);}.cls-43{fill:url(#linear-gradient-42);}.cls-44{fill:url(#linear-gradient-43);}.cls-45{fill:url(#linear-gradient-44);}.cls-46{fill:url(#linear-gradient-45);}.cls-47{fill:url(#linear-gradient-46);}.cls-48{fill:url(#linear-gradient-47);}.cls-49{fill:url(#linear-gradient-48);}.cls-50{fill:url(#linear-gradient-49);}.cls-51{fill:url(#linear-gradient-50);}.cls-52{fill:url(#linear-gradient-51);}.cls-53{fill:url(#linear-gradient-52);}.cls-54{fill:url(#linear-gradient-53);}.cls-55{fill:url(#linear-gradient-54);}.cls-56{fill:url(#linear-gradient-55);}.cls-57{fill:url(#linear-gradient-56);}.cls-58{fill:url(#linear-gradient-57);}.cls-59{fill:url(#linear-gradient-58);}.cls-60{fill:url(#linear-gradient-59);}.cls-61{fill:url(#linear-gradient-60);}.cls-62{fill:url(#linear-gradient-61);}.cls-63{fill:url(#linear-gradient-62);}.cls-64{fill:url(#linear-gradient-63);}.cls-65{fill:url(#linear-gradient-64);}.cls-66{fill:url(#linear-gradient-65);}.cls-67{fill:url(#linear-gradient-66);}.cls-68{fill:url(#linear-gradient-67);}.cls-69{fill:url(#linear-gradient-68);}.cls-70{fill:url(#linear-gradient-69);}.cls-71{fill:url(#linear-gradient-70);}.cls-72{fill:url(#linear-gradient-71);}.cls-73{fill:url(#linear-gradient-72);}.cls-74{fill:url(#linear-gradient-73);}.cls-75{fill:url(#linear-gradient-74);}.cls-76{fill:url(#linear-gradient-75);}.cls-77{fill:url(#linear-gradient-76);}.cls-78{fill:url(#linear-gradient-77);}.cls-79{fill:url(#linear-gradient-78);}.cls-80{fill:url(#linear-gradient-79);}.cls-81{fill:url(#linear-gradient-80);}.cls-82{fill:url(#linear-gradient-81);}.cls-83{fill:url(#linear-gradient-82);}.cls-84{fill:url(#linear-gradient-83);}.cls-85{fill:url(#linear-gradient-84);}.cls-86{fill:url(#linear-gradient-85);}.cls-87{fill:url(#linear-gradient-86);}.cls-88{fill:url(#linear-gradient-87);}.cls-89{fill:url(#linear-gradient-88);}.cls-90{fill:url(#linear-gradient-89);}.cls-91{fill:url(#linear-gradient-90);}.cls-92{fill:url(#linear-gradient-91);}.cls-93{fill:url(#linear-gradient-92);}.cls-94{fill:url(#linear-gradient-93);}.cls-95{fill:url(#linear-gradient-94);}.cls-96{fill:url(#linear-gradient-95);}.cls-97{fill:url(#linear-gradient-96);}.cls-98{fill:url(#linear-gradient-97);}.cls-99{fill:url(#linear-gradient-98);}.cls-100{fill:url(#linear-gradient-99);}.cls-101{fill:url(#linear-gradient-100);}.cls-102{fill:url(#linear-gradient-101);}.cls-103{fill:url(#linear-gradient-102);}.cls-104{fill:url(#linear-gradient-103);}.cls-105{fill:url(#linear-gradient-104);}.cls-106{fill:url(#linear-gradient-105);}.cls-107{fill:url(#linear-gradient-106);}.cls-108{fill:url(#linear-gradient-107);}.cls-109{fill:url(#linear-gradient-108);}.cls-110{fill:url(#linear-gradient-109);}.cls-111{fill:url(#linear-gradient-110);}.cls-112{fill:url(#linear-gradient-111);}.cls-113{fill:url(#linear-gradient-112);}.cls-114{fill:url(#linear-gradient-113);}.cls-115{fill:url(#linear-gradient-114);}.cls-116{fill:url(#linear-gradient-115);}.cls-117{fill:url(#linear-gradient-116);}.cls-118{fill:url(#linear-gradient-117);}.cls-119{fill:url(#linear-gradient-118);}.cls-120{fill:url(#linear-gradient-119);}.cls-121{fill:url(#linear-gradient-120);}.cls-122{fill:url(#linear-gradient-121);}.cls-123{fill:url(#linear-gradient-122);}.cls-124{fill:url(#linear-gradient-123);}.cls-125{fill:url(#linear-gradient-124);}.cls-126{fill:url(#linear-gradient-125);}.cls-127{fill:url(#linear-gradient-126);}.cls-128{fill:url(#linear-gradient-127);}.cls-129{fill:url(#linear-gradient-128);}.cls-130{fill:url(#linear-gradient-129);}.cls-131{fill:url(#linear-gradient-130);}.cls-132{fill:url(#linear-gradient-131);}.cls-133{fill:url(#linear-gradient-132);}.cls-134{fill:url(#linear-gradient-133);}.cls-135{fill:url(#linear-gradient-134);}.cls-136{fill:url(#linear-gradient-135);}.cls-137{fill:url(#linear-gradient-136);}.cls-138{fill:url(#linear-gradient-137);}.cls-139{fill:url(#linear-gradient-138);}.cls-140{fill:url(#linear-gradient-139);}.cls-141{fill:url(#linear-gradient-140);}.cls-142{fill:url(#linear-gradient-141);}.cls-143{fill:url(#linear-gradient-142);}.cls-144{fill:url(#linear-gradient-143);}</style><radialGradient id="radial-gradient" cx="174.41" cy="188.82" r="181.76" gradientUnits="userSpaceOnUse"><stop offset="0.34" stop-color="#ffe7ab"/><stop offset="1" stop-color="#eacd6f"/></radialGradient><linearGradient id="linear-gradient" x1="82.67" y1="5.17" x2="95.17" y2="5.17" gradientUnits="userSpaceOnUse"><stop offset="0.02" stop-color="#ffd56c"/><stop offset="0.34" stop-color="#fec269"/><stop offset="0.65" stop-color="#dba368"/><stop offset="1" stop-color="#c58159"/></linearGradient><linearGradient id="linear-gradient-2" x1="145.46" y1="340.19" x2="156.79" y2="322.52" xlink:href="#radial-gradient"/><linearGradient id="linear-gradient-3" x1="156.38" y1="349.21" x2="122.88" y2="326.71" xlink:href="#linear-gradient"/><linearGradient id="linear-gradient-4" x1="91.17" y1="4.67" x2="108.27" y2="4.67" xlink:href="#radial-gradient"/><linearGradient id="linear-gradient-5" x1="75.67" y1="98.33" x2="39.67" y2="36" xlink:href="#linear-gradient"/><linearGradient id="linear-gradient-6" x1="101.06" y1="339.75" x2="141.4" y2="320.42" xlink:href="#radial-gradient"/><linearGradient id="linear-gradient-7" x1="305.7" y1="226" x2="347.45" y2="137" gradientUnits="userSpaceOnUse"><stop offset="0.02" stop-color="#ffd56c"/><stop offset="0.34" stop-color="#fec269"/><stop offset="0.73" stop-color="#dba368"/><stop offset="1" stop-color="#c58159"/></linearGradient><linearGradient id="linear-gradient-8" x1="124.64" y1="105.73" x2="103.3" y2="16.73" xlink:href="#linear-gradient"/><linearGradient id="linear-gradient-9" x1="65.08" y1="39.06" x2="55.41" y2="70.06" xlink:href="#radial-gradient"/><linearGradient id="linear-gradient-10" x1="140.04" y1="35.46" x2="115.7" y2="75.79" xlink:href="#radial-gradient"/><linearGradient id="linear-gradient-11" x1="106.36" y1="351.02" x2="91.36" y2="308.52" xlink:href="#linear-gradient"/><linearGradient id="linear-gradient-12" x1="75.51" y1="330.14" x2="96.84" y2="306.47" xlink:href="#radial-gradient"/><linearGradient id="linear-gradient-13" x1="318.69" y1="137.47" x2="305.03" y2="163.47" xlink:href="#radial-gradient"/><linearGradient id="linear-gradient-14" x1="330.78" y1="116.53" x2="300.11" y2="149.53" xlink:href="#linear-gradient-7"/><linearGradient id="linear-gradient-15" x1="299.69" y1="94.49" x2="288.36" y2="124.82" xlink:href="#radial-gradient"/><linearGradient id="linear-gradient-16" x1="345.74" y1="264.88" x2="341.4" y2="280.21" xlink:href="#radial-gradient"/><linearGradient id="linear-gradient-17" x1="251.43" y1="378.58" x2="240.18" y2="339.58" xlink:href="#linear-gradient-7"/><linearGradient id="linear-gradient-18" x1="356.8" y1="251.62" x2="336.13" y2="267.62" xlink:href="#linear-gradient-7"/><linearGradient id="linear-gradient-19" x1="343.79" y1="241.88" x2="336.13" y2="266.22" xlink:href="#radial-gradient"/><linearGradient id="linear-gradient-20" x1="256.17" y1="345.14" x2="236.84" y2="341.14" xlink:href="#radial-gradient"/><linearGradient id="linear-gradient-21" x1="355.19" y1="227.66" x2="336.19" y2="248" xlink:href="#linear-gradient-7"/><linearGradient id="linear-gradient-22" x1="335.03" y1="336.4" x2="298.36" y2="295.07" xlink:href="#linear-gradient-7"/><linearGradient id="linear-gradient-23" x1="300.08" y1="301.66" x2="324.44" y2="301.66" xlink:href="#radial-gradient"/><linearGradient id="linear-gradient-24" x1="314.22" y1="182.97" x2="349.89" y2="220.97" xlink:href="#radial-gradient"/><linearGradient id="linear-gradient-25" x1="81.56" y1="349.33" x2="59.56" y2="275.83" xlink:href="#linear-gradient"/><linearGradient id="linear-gradient-26" x1="35.4" y1="302.22" x2="62.4" y2="263.22" xlink:href="#radial-gradient"/><linearGradient id="linear-gradient-27" x1="223.73" y1="352.71" x2="212.98" y2="310.46" xlink:href="#linear-gradient-7"/><linearGradient id="linear-gradient-28" x1="167.26" y1="234.08" x2="182.76" y2="302.58" xlink:href="#linear-gradient-7"/><linearGradient id="linear-gradient-29" x1="238.92" y1="314.12" x2="202.59" y2="301.79" xlink:href="#radial-gradient"/><linearGradient id="linear-gradient-30" x1="137.89" y1="297.78" x2="262.14" y2="291.78" xlink:href="#linear-gradient-7"/><linearGradient id="linear-gradient-31" x1="232.93" y1="291.04" x2="239.93" y2="332.29" xlink:href="#linear-gradient-7"/><linearGradient id="linear-gradient-32" x1="125.19" y1="192.87" x2="76.52" y2="168.21" xlink:href="#linear-gradient"/><linearGradient id="linear-gradient-33" x1="170.49" y1="191.11" x2="134.82" y2="66.77" xlink:href="#linear-gradient"/><linearGradient id="linear-gradient-34" x1="123.12" y1="200.77" x2="269.12" y2="215.77" xlink:href="#linear-gradient-7"/><linearGradient id="linear-gradient-35" x1="83.56" y1="245.9" x2="249.89" y2="174.9" xlink:href="#linear-gradient-7"/><linearGradient id="linear-gradient-36" x1="212.74" y1="226.78" x2="302.74" y2="271.28" xlink:href="#linear-gradient-7"/><linearGradient id="linear-gradient-37" x1="256.72" y1="251.24" x2="265.47" y2="292.49" xlink:href="#linear-gradient-7"/><linearGradient id="linear-gradient-38" x1="77.53" y1="203.76" x2="59.19" y2="84.76" xlink:href="#linear-gradient"/><linearGradient id="linear-gradient-39" x1="260.16" y1="229.05" x2="326.16" y2="160.38" xlink:href="#linear-gradient-7"/><linearGradient id="linear-gradient-40" x1="337.89" y1="160.46" x2="221.89" y2="240.21" gradientUnits="userSpaceOnUse"><stop offset="0" stop-color="#c58159"/><stop offset="1" stop-color="#aa704d"/></linearGradient><linearGradient id="linear-gradient-41" x1="246.93" y1="292.39" x2="303.18" y2="282.39" xlink:href="#linear-gradient-7"/><linearGradient id="linear-gradient-42" x1="287.16" y1="271.01" x2="313" y2="271.01" xlink:href="#radial-gradient"/><linearGradient id="linear-gradient-43" x1="292.66" y1="100.37" x2="101.17" y2="258.37" xlink:href="#linear-gradient"/><linearGradient id="linear-gradient-44" x1="151.17" y1="252.8" x2="46.17" y2="260.8" xlink:href="#linear-gradient"/><linearGradient id="linear-gradient-45" x1="33.39" y1="236.09" x2="64.06" y2="271.43" xlink:href="#radial-gradient"/><linearGradient id="linear-gradient-46" x1="15.66" y1="272.45" x2="43.16" y2="221.45" xlink:href="#linear-gradient"/><linearGradient id="linear-gradient-47" x1="38.96" y1="323.74" x2="15.46" y2="248.24" xlink:href="#linear-gradient"/><linearGradient id="linear-gradient-48" x1="257.97" y1="200.75" x2="267.3" y2="114.42" xlink:href="#linear-gradient-7"/><linearGradient id="linear-gradient-49" x1="290.08" y1="252.46" x2="326.58" y2="252.96" xlink:href="#linear-gradient-7"/><linearGradient id="linear-gradient-50" x1="308.39" y1="306.4" x2="313.64" y2="257.65" xlink:href="#linear-gradient-7"/><linearGradient id="linear-gradient-51" x1="309.01" y1="286.02" x2="332.76" y2="295.27" xlink:href="#linear-gradient-7"/><linearGradient id="linear-gradient-52" x1="325.47" y1="315.95" x2="320.97" y2="291.2" xlink:href="#linear-gradient-7"/><linearGradient id="linear-gradient-53" x1="309.45" y1="311.73" x2="336.45" y2="322.98" xlink:href="#linear-gradient-7"/><linearGradient id="linear-gradient-54" x1="310.56" y1="338.24" x2="323.56" y2="306.49" xlink:href="#linear-gradient-7"/><linearGradient id="linear-gradient-55" x1="343.15" y1="210.55" x2="319.15" y2="224.55" xlink:href="#radial-gradient"/><linearGradient id="linear-gradient-56" x1="324.23" y1="218.75" x2="335.89" y2="235.75" xlink:href="#radial-gradient"/><linearGradient id="linear-gradient-57" x1="336.28" y1="232.67" x2="335.28" y2="248.67" xlink:href="#radial-gradient"/><linearGradient id="linear-gradient-58" x1="258.9" y1="118.04" x2="318.9" y2="80.37" xlink:href="#linear-gradient-7"/><linearGradient id="linear-gradient-59" x1="136.62" y1="89.52" x2="181.62" y2="39.85" xlink:href="#linear-gradient"/><linearGradient id="linear-gradient-60" x1="152.61" y1="341.25" x2="258.11" y2="331.75" xlink:href="#linear-gradient-7"/><linearGradient id="linear-gradient-61" x1="255.85" y1="327" x2="255.85" y2="348.75" xlink:href="#linear-gradient-7"/><linearGradient id="linear-gradient-62" x1="244.46" y1="358.61" x2="266.96" y2="371.86" xlink:href="#linear-gradient-7"/><linearGradient id="linear-gradient-63" x1="251.29" y1="381.32" x2="255.04" y2="354.57" xlink:href="#linear-gradient-7"/><linearGradient id="linear-gradient-64" x1="341.04" y1="276.7" x2="346.38" y2="294.04" xlink:href="#radial-gradient"/><linearGradient id="linear-gradient-65" x1="286.39" y1="122.9" x2="304.06" y2="151.24" xlink:href="#radial-gradient"/><linearGradient id="linear-gradient-66" x1="179.37" y1="54.5" x2="118.7" y2="15.5" xlink:href="#linear-gradient"/><linearGradient id="linear-gradient-67" x1="48.09" y1="111.94" x2="94.75" y2="46.61" xlink:href="#linear-gradient"/><linearGradient id="linear-gradient-68" x1="92.55" y1="63.22" x2="45.89" y2="13.22" gradientUnits="userSpaceOnUse"><stop offset="0.34" stop-color="#fec269"/><stop offset="1" stop-color="#dba368"/></linearGradient><linearGradient id="linear-gradient-69" x1="85.73" y1="119.87" x2="99.35" y2="53.49" xlink:href="#linear-gradient-7"/><linearGradient id="linear-gradient-70" x1="306.62" y1="159.56" x2="337.95" y2="179.22" xlink:href="#radial-gradient"/><linearGradient id="linear-gradient-71" x1="357.18" y1="205.8" x2="333.51" y2="123.13" xlink:href="#linear-gradient-7"/><linearGradient id="linear-gradient-72" x1="330.82" y1="141.1" x2="345.48" y2="93.43" xlink:href="#linear-gradient-7"/><linearGradient id="linear-gradient-73" x1="101.19" y1="35.25" x2="120.86" y2="-6.75" xlink:href="#linear-gradient"/><linearGradient id="linear-gradient-74" x1="120.34" y1="8.62" x2="88.01" y2="-11.05" xlink:href="#linear-gradient"/><linearGradient id="linear-gradient-75" x1="37.4" y1="54.02" x2="49.73" y2="20.02" xlink:href="#linear-gradient"/><linearGradient id="linear-gradient-76" x1="49.96" y1="30.68" x2="41.29" y2="8.68" xlink:href="#linear-gradient"/><linearGradient id="linear-gradient-77" x1="138.24" y1="255.08" x2="60.24" y2="243.75" xlink:href="#linear-gradient-7"/><linearGradient id="linear-gradient-78" x1="-7.09" y1="198.4" x2="20.41" y2="112.9" xlink:href="#linear-gradient"/><linearGradient id="linear-gradient-79" x1="-20.76" y1="141.1" x2="37.24" y2="171.6" xlink:href="#linear-gradient"/><linearGradient id="linear-gradient-80" x1="25.4" y1="128.44" x2="32.4" y2="181.1" xlink:href="#radial-gradient"/><linearGradient id="linear-gradient-81" x1="314.32" y1="131.2" x2="73.31" y2="227.7" xlink:href="#linear-gradient"/><linearGradient id="linear-gradient-82" x1="86.45" y1="236.13" x2="37.95" y2="169.13" xlink:href="#linear-gradient"/><linearGradient id="linear-gradient-83" x1="45.39" y1="235.69" x2="59.39" y2="125.19" xlink:href="#linear-gradient"/><linearGradient id="linear-gradient-84" x1="62.95" y1="133.15" x2="2.95" y2="116.65" xlink:href="#linear-gradient"/><linearGradient id="linear-gradient-85" x1="25.24" y1="124.29" x2="6.74" y2="92.79" xlink:href="#linear-gradient"/><linearGradient id="linear-gradient-86" x1="3.96" y1="111.61" x2="21.96" y2="78.11" xlink:href="#linear-gradient"/><linearGradient id="linear-gradient-87" x1="25.01" y1="87.16" x2="15" y2="67.66" xlink:href="#linear-gradient"/><linearGradient id="linear-gradient-88" x1="11.78" y1="72.01" x2="32.78" y2="49.51" xlink:href="#linear-gradient"/><linearGradient id="linear-gradient-89" x1="126.62" y1="192.24" x2="24.29" y2="177.37" xlink:href="#linear-gradient-7"/><linearGradient id="linear-gradient-90" x1="130.74" y1="102.76" x2="143.74" y2="44.76" xlink:href="#linear-gradient-7"/><linearGradient id="linear-gradient-91" x1="256.97" y1="149.48" x2="268.74" y2="92.14" xlink:href="#linear-gradient-7"/><linearGradient id="linear-gradient-92" x1="197.25" y1="57.86" x2="203.38" y2="91.23" gradientTransform="matrix(0.95, 0.02, -0.12, 1.05, 19.84, -8.69)" gradientUnits="userSpaceOnUse"><stop offset="0.2" stop-color="#e2c890"/><stop offset="0.38" stop-color="#dbc089"/><stop offset="0.54" stop-color="#b39968"/><stop offset="0.62" stop-color="#ceb37e"/><stop offset="0.81" stop-color="#ad9364"/></linearGradient><linearGradient id="linear-gradient-93" x1="24.32" y1="146.8" x2="146.57" y2="185.3" xlink:href="#linear-gradient"/><linearGradient id="linear-gradient-94" x1="167" y1="143.54" x2="163.66" y2="48.37" xlink:href="#linear-gradient-7"/><linearGradient id="linear-gradient-95" x1="138.54" y1="81.14" x2="204.29" y2="179.39" gradientUnits="userSpaceOnUse"><stop offset="0" stop-color="#c58159"/><stop offset="0.89" stop-color="#7c5034"/></linearGradient><linearGradient id="linear-gradient-96" x1="138.68" y1="189.82" x2="363.35" y2="150.48" gradientUnits="userSpaceOnUse"><stop offset="0" stop-color="#f2b969"/><stop offset="0.09" stop-color="#ffd56c"/><stop offset="0.34" stop-color="#fec269"/><stop offset="0.73" stop-color="#dba368"/><stop offset="1" stop-color="#c58159"/></linearGradient><linearGradient id="linear-gradient-97" x1="131.41" y1="52.38" x2="145.29" y2="128.71" xlink:href="#linear-gradient-7"/><linearGradient id="linear-gradient-98" x1="170.06" y1="61.69" x2="167.06" y2="103.57" xlink:href="#linear-gradient-7"/><linearGradient id="linear-gradient-99" x1="185.01" y1="79.24" x2="196.01" y2="139.74" xlink:href="#linear-gradient-7"/><linearGradient id="linear-gradient-100" x1="204.56" y1="88.51" x2="187.98" y2="123.07" xlink:href="#linear-gradient-7"/><linearGradient id="linear-gradient-101" x1="102.3" y1="102.83" x2="233.08" y2="164.55" xlink:href="#linear-gradient-7"/><linearGradient id="linear-gradient-102" x1="147.73" y1="156.07" x2="221.49" y2="72.76" xlink:href="#linear-gradient-7"/><linearGradient id="linear-gradient-103" x1="93.7" y1="78.88" x2="116.54" y2="132.17" xlink:href="#linear-gradient"/><linearGradient id="linear-gradient-104" x1="93.65" y1="66.06" x2="224.15" y2="104.06" xlink:href="#linear-gradient-7"/><linearGradient id="linear-gradient-105" x1="230.09" y1="90.64" x2="257.71" y2="157.01" xlink:href="#linear-gradient-7"/><linearGradient id="linear-gradient-106" x1="181.05" y1="86.86" x2="261.8" y2="81.49" xlink:href="#linear-gradient-7"/><linearGradient id="linear-gradient-107" x1="112.54" y1="113.82" x2="277.04" y2="200.95" xlink:href="#linear-gradient-7"/><linearGradient id="linear-gradient-108" x1="201.92" y1="208.5" x2="275.7" y2="247.57" gradientTransform="matrix(1.23, -0.14, -0.23, -0.5, -3.39, 386.89)" xlink:href="#linear-gradient-7"/><linearGradient id="linear-gradient-109" x1="68.01" y1="57.28" x2="214.67" y2="105.61" xlink:href="#linear-gradient-7"/><linearGradient id="linear-gradient-110" x1="25.44" y1="185.02" x2="117.92" y2="215.5" xlink:href="#linear-gradient-7"/><linearGradient id="linear-gradient-111" x1="43.65" y1="230.47" x2="144.52" y2="263.71" xlink:href="#linear-gradient-7"/><linearGradient id="linear-gradient-112" x1="65.56" y1="256.65" x2="180.58" y2="294.55" xlink:href="#linear-gradient-7"/><linearGradient id="linear-gradient-113" x1="193.14" y1="297.34" x2="221.42" y2="306.66" xlink:href="#linear-gradient-7"/><linearGradient id="linear-gradient-114" x1="48.35" y1="185.74" x2="194.97" y2="234.06" xlink:href="#linear-gradient-7"/><linearGradient id="linear-gradient-115" x1="246.46" y1="278.36" x2="297.44" y2="267.66" xlink:href="#linear-gradient-40"/><linearGradient id="linear-gradient-116" x1="86.24" y1="92.5" x2="220.01" y2="163.35" xlink:href="#linear-gradient-7"/><linearGradient id="linear-gradient-117" x1="132.77" y1="147.66" x2="267.82" y2="256.72" gradientTransform="translate(-18.39 19.41) rotate(-5.82)" gradientUnits="userSpaceOnUse"><stop offset="0.09" stop-color="#ffd56c"/><stop offset="0.34" stop-color="#fec269"/><stop offset="0.73" stop-color="#dba368"/><stop offset="1" stop-color="#c58159"/></linearGradient><linearGradient id="linear-gradient-118" x1="180.34" y1="-44.05" x2="106.59" y2="206.65" xlink:href="#linear-gradient"/><linearGradient id="linear-gradient-119" x1="184.58" y1="195.57" x2="85.83" y2="368.07" gradientTransform="matrix(1, 0, 0, 1, 0, 0)" xlink:href="#linear-gradient-117"/><linearGradient id="linear-gradient-120" x1="176.5" y1="255.47" x2="191.84" y2="130.81" gradientTransform="matrix(1, 0, 0, 1, 0, 0)" xlink:href="#linear-gradient-117"/><linearGradient id="linear-gradient-121" x1="180.11" y1="231.19" x2="293.78" y2="50.52" gradientTransform="matrix(1, 0, 0, 1, 0, 0)" xlink:href="#linear-gradient-117"/><linearGradient id="linear-gradient-122" x1="239.12" y1="145.71" x2="116.87" y2="270.29" xlink:href="#linear-gradient"/><linearGradient id="linear-gradient-123" x1="197.83" y1="157.8" x2="193.83" y2="217.92" gradientTransform="translate(389.89 0.18) rotate(87.82)" xlink:href="#linear-gradient"/><linearGradient id="linear-gradient-124" x1="198.88" y1="195.28" x2="192.63" y2="208.28" gradientTransform="translate(389.85 -1.78) rotate(87.82)" gradientUnits="userSpaceOnUse"><stop offset="0.05" stop-color="#fffdeb"/><stop offset="0.44" stop-color="#ffe7ab"/><stop offset="0.8" stop-color="#ebce72"/><stop offset="1" stop-color="#f1d78a"/></linearGradient><linearGradient id="linear-gradient-125" x1="194.23" y1="199.28" x2="190.56" y2="206.61" gradientTransform="translate(387.9 3) rotate(87.83)" xlink:href="#linear-gradient"/><linearGradient id="linear-gradient-126" x1="198.46" y1="185.29" x2="191.46" y2="203.79" gradientTransform="translate(387.17 3.47) rotate(87.79)" xlink:href="#linear-gradient-95"/><linearGradient id="linear-gradient-127" x1="180.19" y1="156.62" x2="176.19" y2="216.75" gradientTransform="translate(372.21 17.19) rotate(87.82)" xlink:href="#linear-gradient"/><linearGradient id="linear-gradient-128" x1="183.41" y1="191.62" x2="172.41" y2="211.12" gradientTransform="translate(372.17 15.23) rotate(87.82)" xlink:href="#linear-gradient-124"/><linearGradient id="linear-gradient-129" x1="185.33" y1="195.71" x2="178.33" y2="208.05" gradientTransform="translate(377.14 14.14) rotate(87.82)" xlink:href="#linear-gradient"/><linearGradient id="linear-gradient-130" x1="189.97" y1="182.07" x2="182.97" y2="200.57" gradientTransform="translate(378.08 13.53) rotate(87.83)" xlink:href="#linear-gradient-95"/><linearGradient id="linear-gradient-131" x1="113.43" y1="223.7" x2="129.72" y2="188.98" gradientTransform="matrix(0.73, 0.31, 0.01, 0.79, 33.56, 9.99)" gradientUnits="userSpaceOnUse"><stop offset="0.29" stop-color="#c58159"/><stop offset="1" stop-color="#8e5d3e"/></linearGradient><linearGradient id="linear-gradient-132" x1="103.35" y1="218.77" x2="118.28" y2="186.96" xlink:href="#linear-gradient-131"/><linearGradient id="linear-gradient-133" x1="127" y1="230.45" x2="145.92" y2="190.13" xlink:href="#linear-gradient-131"/><linearGradient id="linear-gradient-134" x1="107.21" y1="237.29" x2="132.52" y2="183.33" xlink:href="#linear-gradient-131"/><linearGradient id="linear-gradient-135" x1="98.37" y1="231" x2="121.01" y2="182.74" xlink:href="#linear-gradient-131"/><linearGradient id="linear-gradient-136" x1="118.35" y1="245.9" x2="147.61" y2="183.53" xlink:href="#linear-gradient-131"/><linearGradient id="linear-gradient-137" x1="144.41" y1="188.63" x2="154.41" y2="188.38" xlink:href="#linear-gradient-7"/><linearGradient id="linear-gradient-138" x1="178.44" y1="44.31" x2="117.82" y2="153.87" xlink:href="#linear-gradient"/><linearGradient id="linear-gradient-139" x1="180.03" y1="27.62" x2="129.25" y2="153.42" gradientUnits="userSpaceOnUse"><stop offset="0.2" stop-color="#e2c890"/><stop offset="0.54" stop-color="#dbc089"/><stop offset="0.62" stop-color="#b39968"/><stop offset="0.7" stop-color="#e0c68e"/><stop offset="0.88" stop-color="#e5cb92"/><stop offset="0.88" stop-color="#ad9364"/></linearGradient><linearGradient id="linear-gradient-140" x1="185.32" y1="196.92" x2="183.95" y2="199.34" gradientUnits="userSpaceOnUse"><stop offset="0.3" stop-color="#fffdeb"/><stop offset="1" stop-color="#fff1c9"/></linearGradient><linearGradient id="linear-gradient-141" x1="181.03" y1="204.76" x2="180.35" y2="205.96" gradientUnits="userSpaceOnUse"><stop offset="0" stop-color="#ffe7ab"/><stop offset="0.8" stop-color="#ebce72"/><stop offset="1" stop-color="#f1d78a"/></linearGradient><linearGradient id="linear-gradient-142" x1="191.51" y1="204.2" x2="191.06" y2="204.99" xlink:href="#linear-gradient-141"/><linearGradient id="linear-gradient-143" x1="194.97" y1="198.4" x2="193.85" y2="200.38" xlink:href="#linear-gradient-140"/></defs><title>cardboard-mess</title><g id="Layer_2" data-name="Layer 2"><g id="Layer_3" data-name="Layer 3"><path class="cls-1" d="M343.17,264h-2.6l8.26-25.54h-6l-5.58,5.11,2.23-12.07-8.31-10.09,16.15-8.18-24-34.06s0,0-.08,0l-23.32,2.2L256.83,214l-31.49-8.19,2.79-10.26,44.24-19.85v-60.4l11.71-6.49-4.25,14.59,12.58,20,15.16,2.49-6.66,12.26,25.84,16.73h8.72L343.17,146l-7.68-17.87,5.68-11-2.52-.06-6.82,11.06L337.42,146l-9.05,24.63-16.95-10.37,15.34-25H313.42l-10.22,4L293.75,125,311.5,93.67h-23l-32.43,17.5-6.49,58.89-15.92,5.21,12.64-46.41L228.83,86.37l-22.55-.85c-1.45-4.08-3.74-9.54-4.24-9.85-.67-.41-2.1-5.19-2.58-6.52s-2.26-.18-2.28-.05-1.2.63-1.41.36-1.08-.49-1.11-.16-.63-.19-1-.9-.48.08.13,2.07,3.14,8.67,3.86,9.66a25.71,25.71,0,0,1,2,5.14l-26.61-1-.05.24,16,21.05-17.43,2.06c2.73-3,6-7.86,5.61-8.14s-2,1-3.75.65c-.24-.05.25-3.88-3.5-3.87-.85,0,.53,7.46-9.36,9.36l-8.34-27,35-28.24L156.1,30.5H130L117.89,52.62l-9.62-26.29,11.53-21L108.27,0h-7L93.07,7.58,85.17,1h-2.5l8.5,8.33h4l10-7.15L113.83,7l-14,21.33,8.43,41.92,15.07-2.75,22.81-25.76,12.38,8.6-29.66,31,5.58,24.06L127,103.17,86.27,117.48v.2l13.4,39,2.9,8.95L80.68,152.07l-10.13-62L97.83,57.33,73.9,40.42,56.69,36.33l-2.24,19.9L44.21,43.33,50,27.5l-3.79-7.67-2-1L47,26.33l-8.67,17L53.17,67.67H63.53l7.74-20.36L82.83,56,50,94.29,54.36,124l-20.3-2.71-13,5.14,4.49-12L12.75,98l11.58-18.4L15.54,69.47l8.79-9.83h-2l-9.58,9.83,6.58,10.17L6.75,100.47l8.44,17L0,159l29,16.76L40.7,165,36,134.2l12,3.05L44.21,192l28.44,39.63,56.26-12.81c.17.16.3.27.35.34h0L93.37,248.89l-37.55,3.26-7.25-13.9-28-1.66L7.72,261l17.81,34.61,20.25,12.57,11.33-19.38L72.43,327l8.26,3.49,10-10.57,7.79,15.42,6.67,2.14,21.28-5.5,16.88,8h4.5l8.7-15.42h-2.2l-9.64,13.52-12.51-7.61h-8.85l-19,3.71L98.5,311.68l-12.23-.54-8,9.18-11.53-48-17.11-2.21L37.83,282.56l-6.12-19.71L40.49,250l3.07,2.07,19.79,15.5,50.9-3.27L146.18,234l0,.06,22.44,68.64,53.83-6.21,0,.11.2.86.16.71,0,.15,1.42,6.27-4.35-.56-15.55,6.82,8.11,26.61,41-3.84-2.12,9.25h-7.63l-5.47.75,6.18,17.25,6.93,4.5v12.25l2.18-3,2.19-11.25-7.27-5-4.14-13.52,6.28,1.27,5.13-3.25,5.13-13-41,4.37v-17.7l7.41,2.69c.19.16.31.15.36,0l17.84-11.87-2.12-21.13-47.34,5-9.91-65.94h0L241.76,256l14,38.06,46.44-3.88,5.25-8.32-1,8.21,13.42,4,.27,2.41h-16.4l-3.61,4.73,10.47,12.12,7.78,4-2.63,6.52,1.68-1.27,3.48-7.75-7.56-3.55-5.19-8,13.12,3.44,3.21-10.27-1.8-10.27-10.38-3.63,6.12-34.08-22.14,3.3-9.08,4.89,8.92,19.88-23.58,5-2.11-41.18-47.12-22.72,57,8.93,31.62-34.84,24.3,21.39-17.67,6.68,14.76,11.59v15.75l3.23.55,3.86-2.92L332.9,264l6.58,3.37,3.06-1.1-3.06,11,4.67,12.5,1.93,1-2.75-12.25L348.83,264Zm-32.62-7.23-1.42,11.41-9-11.41ZM55.71,179.13l4.3-17,.42,2.85,53.42,40.38-37,7.38ZM10.33,155l6.94-18.53,6.89,23.08Z"/><polygon class="cls-2" points="82.67 1 91.17 9.33 95.17 9.33 85.17 1 82.67 1"/><polygon class="cls-3" points="156.53 324.58 147.83 340 143.33 340 154.33 324.58 156.53 324.58"/><polygon class="cls-4" points="147.83 340 132.18 330.48 123.33 330.48 143.33 340 147.83 340"/><polygon class="cls-5" points="91.17 9.33 101.31 0 108.27 0 95.17 9.33 91.17 9.33"/><polygon class="cls-6" points="53.17 67.67 38.33 43.33 44.21 43.33 63.53 67.67 53.17 67.67"/><polygon class="cls-7" points="132.18 330.48 105.17 337.47 98.5 335.33 123.33 330.48 132.18 330.48"/><polygon class="cls-8" points="343.17 146 335.48 174.94 326.76 174.94 337.42 145.96 343.17 146"/><polygon class="cls-9" points="108.27 70.25 99.83 28.33 108.27 26.33 123.33 67.5 108.27 70.25"/><polygon class="cls-10" points="53.17 67.67 56.69 36.33 73.9 40.42 63.53 67.67 53.17 67.67"/><polygon class="cls-11" points="108.27 70.25 129.96 30.5 156.1 30.5 123.33 67.5 108.27 70.25"/><polygon class="cls-12" points="105.17 337.47 98.5 311.68 86.27 311.14 98.5 335.33 105.17 337.47"/><polygon class="cls-13" points="98.5 311.68 80.69 330.48 72.43 326.99 86.27 311.14 98.5 311.68"/><polygon class="cls-14" points="311.42 160.21 326.76 135.21 313.42 135.21 300.92 158.21 311.42 160.21"/><polygon class="cls-15" points="326.76 135.21 307.67 145.96 292.42 143.46 313.42 135.21 326.76 135.21"/><polygon class="cls-16" points="293.75 125 311.5 93.67 288.5 93.67 279.83 123.45 293.75 125"/><polygon class="cls-17" points="343.33 278.5 348.83 263.96 343.17 263.96 339.48 277.25 343.33 278.5"/><polygon class="cls-18" points="238.37 343.64 244.54 360.89 248.58 358.39 243.83 342.89 238.37 343.64"/><polygon class="cls-19" points="348.83 263.96 339.48 267.33 332.9 263.96 343.17 263.96 348.83 263.96"/><polygon class="cls-20" points="339.48 267.33 348.83 238.41 342.83 238.41 332.9 263.96 339.48 267.33"/><polygon class="cls-21" points="238.37 343.64 250.72 346.14 255.85 342.89 243.83 342.89 238.37 343.64"/><polygon class="cls-22" points="348.83 238.41 336.47 247.76 333.24 247.21 342.83 238.41 348.83 238.41"/><polygon class="cls-23" points="300.08 301.25 303.69 296.52 313.3 311.37 310.55 313.37 300.08 301.25"/><polygon class="cls-24" points="324.44 296.52 303.69 296.52 300.08 301.25 321.23 306.79 324.44 296.52"/><polygon class="cls-25" points="347.32 213.19 323.34 179.13 299.95 181.33 336.15 213.19 347.32 213.19"/><polygon class="cls-26" points="80.69 330.48 66.73 272.29 49.62 270.08 72.43 326.99 80.69 330.48"/><polygon class="cls-27" points="45.78 308.14 25.53 295.57 49.62 270.08 66.73 272.29 45.78 308.14"/><polygon class="cls-28" points="212.55 337.48 204.44 310.88 220 304.06 220 334.23 212.55 337.48"/><polygon class="cls-29" points="146.23 233.81 168.67 302.73 196.13 291.21 186.21 225.19 146.23 233.81"/><polygon class="cls-30" points="204.44 310.88 227.68 319.31 245.6 307.38 220 304.06 204.44 310.88"/><polygon class="cls-31" points="222.5 296.52 168.67 302.73 196.13 291.21 243.48 286.25 222.5 296.52"/><polygon class="cls-32" points="227.68 319.31 222.5 296.52 243.48 286.25 245.6 307.38 227.68 319.31"/><polygon class="cls-33" points="113.85 205.37 60.43 164.99 80.68 152.07 156.1 198.74 113.85 205.37"/><polygon class="cls-34" points="188.19 195.03 156.1 198.74 128.87 81.37 152.26 78.58 188.19 195.03"/><polygon class="cls-35" points="222.19 217.43 280.22 226.65 256.83 214.04 198 198.74 222.19 217.43"/><polygon class="cls-36" points="179.49 192.99 202.39 207.14 272.37 175.75 249.59 170.05 179.49 192.99"/><polygon class="cls-37" points="186.21 225.19 241.76 256 270.39 240.43 221.36 216.79 186.21 225.19"/><polygon class="cls-38" points="255.74 294.06 241.76 256 270.39 240.43 272.5 281.6 255.74 294.06"/><polygon class="cls-39" points="60.43 164.99 49.96 94.29 70.56 90.1 80.68 152.07 60.43 164.99"/><polygon class="cls-40" points="280.22 226.65 323.34 179.13 299.95 181.33 256.83 214.04 280.22 226.65"/><path class="cls-41" d="M323.34,179.13l-43.12,47.51-62.83-9.85.56-.42s61.69,9.75,62.06,9.75S323.41,177.95,323.34,179.13Z"/><polygon class="cls-42" points="255.74 294.06 302.17 290.18 313 273.02 272.5 281.6 255.74 294.06"/><polygon class="cls-43" points="287.16 256.73 302.17 290.18 313 273.02 296.24 251.84 287.16 256.73"/><polygon class="cls-44" points="146.23 233.81 113.85 263.96 93.37 248.89 129.96 218.56 146.23 233.81"/><polygon class="cls-45" points="63.35 267.61 113.85 263.96 93.37 248.89 46.13 252.99 63.35 267.61"/><polygon class="cls-46" points="63.35 267.61 43.57 252.1 20.52 236.6 48.57 238.26 63.35 267.61"/><polygon class="cls-47" points="7.72 260.96 20.52 236.6 48.57 238.26 31.71 262.85 7.72 260.96"/><polygon class="cls-48" points="31.71 262.85 45.78 308.14 25.53 295.57 7.72 260.96 31.71 262.85"/><polygon class="cls-49" points="272.37 175.75 272.37 115.35 256.07 111.16 249.59 170.05 272.37 175.75"/><polygon class="cls-50" points="310.55 256.73 287.16 256.73 296.24 251.84 318.38 248.54 310.55 256.73"/><polygon class="cls-51" points="306.39 290.07 310.55 256.73 318.38 248.54 312.26 282.62 306.39 290.07"/><polygon class="cls-52" points="319.82 294.11 306.39 290.07 312.26 282.62 322.64 286.25 319.82 294.11"/><polygon class="cls-53" points="319.82 294.11 321.23 306.79 324.44 296.52 322.64 286.25 319.82 294.11"/><polygon class="cls-54" points="318.33 317.41 310.55 313.37 313.3 311.37 320.86 314.91 318.33 317.41"/><polygon class="cls-55" points="315.71 323.93 318.33 317.41 320.86 314.91 317.38 322.66 315.71 323.93"/><polygon class="cls-56" points="347.32 213.19 331.17 221.37 318.48 219.87 336.15 213.19 347.32 213.19"/><polygon class="cls-57" points="339.48 231.46 331.17 221.37 318.48 219.87 333.24 231.46 339.48 231.46"/><polygon class="cls-58" points="336.47 247.76 339.48 231.46 333.24 231.46 333.24 247.21 336.47 247.76"/><polygon class="cls-59" points="311.5 93.67 272.37 115.35 256.07 111.16 288.5 93.67 311.5 93.67"/><polygon class="cls-60" points="128.87 81.37 158.53 50.33 187.26 50.33 152.26 78.58 128.87 81.37"/><polygon class="cls-61" points="212.55 337.48 253.58 333.64 260.98 329.86 220 334.23 212.55 337.48"/><polygon class="cls-62" points="250.72 346.14 253.58 333.64 260.98 329.86 255.85 342.89 250.72 346.14"/><polygon class="cls-63" points="251.48 365.39 244.54 360.89 248.58 358.39 255.85 363.39 251.48 365.39"/><polygon class="cls-64" points="251.48 377.64 251.48 365.39 255.85 363.39 253.66 374.64 251.48 377.64"/><polygon class="cls-65" points="346.08 290.75 343.33 278.5 339.48 277.25 344.15 289.75 346.08 290.75"/><polygon class="cls-66" points="307.67 145.96 293.75 125 279.83 123.45 292.42 143.46 307.67 145.96"/><polygon class="cls-67" points="129.96 30.5 158.53 50.33 187.26 50.33 156.1 30.5 129.96 30.5"/><polygon class="cls-68" points="49.96 94.29 82.83 56 97.83 57.33 70.56 90.1 49.96 94.29"/><polygon class="cls-69" points="56.69 36.33 82.83 56 97.83 57.33 73.9 40.42 56.69 36.33"/><path class="cls-70" d="M56.69,36.33,82.83,56,50,94.29,60.43,165l53.42,40.38.61-.49-53.29-40.3L50.5,94.29,83.58,56S59.88,38.25,56.69,36.33Z"/><polygon class="cls-71" points="311.42 160.21 335.48 174.94 326.76 174.94 300.92 158.21 311.42 160.21"/><polygon class="cls-72" points="335.48 128.12 343.17 146 337.42 145.96 331.83 128.12 335.48 128.12"/><polygon class="cls-73" points="341.17 117.12 335.48 128.12 331.83 128.12 338.65 117.06 341.17 117.12"/><polygon class="cls-74" points="99.83 28.33 113.83 7 119.8 5.33 108.27 26.33 99.83 28.33"/><polygon class="cls-75" points="101.31 0 113.83 7 119.8 5.33 108.27 0 101.31 0"/><polygon class="cls-76" points="38.33 43.33 47 26.33 49.96 27.5 44.21 43.33 38.33 43.33"/><polygon class="cls-77" points="44.21 18.83 47 26.33 49.96 27.5 46.17 19.83 44.21 18.83"/><path class="cls-78" d="M48.57,238.26l15.1,29,49.9-3.46,32.65-30.93.38.8-32.36,30.71-50.9,3.27S48.9,240.34,48.57,238.26Z"/><polygon class="cls-79" points="0 158.96 10.33 154.97 25.51 114.47 15.19 117.47 0 158.96"/><polygon class="cls-80" points="0 158.96 29 175.72 40.7 164.96 10.33 154.97 0 158.96"/><polygon class="cls-81" points="29 175.72 15 128.82 34.07 121.31 40.7 164.96 29 175.72"/><polygon class="cls-82" points="113.85 205.37 76.84 212.75 72.65 231.61 129.96 218.56 113.85 205.37"/><polygon class="cls-83" points="72.65 231.61 44.21 191.98 55.71 179.13 76.84 212.75 72.65 231.61"/><polygon class="cls-84" points="44.21 191.98 47.98 137.25 69.17 126 55.71 179.13 44.21 191.98"/><polygon class="cls-85" points="15 128.82 47.98 137.25 69.17 126 34.07 121.31 15 128.82"/><polygon class="cls-86" points="6.75 100.47 15.19 117.47 25.51 114.47 12.75 98.04 6.75 100.47"/><polygon class="cls-87" points="12.75 98.04 24.33 79.64 19.33 79.64 6.75 100.47 12.75 98.04"/><polygon class="cls-88" points="12.75 69.47 19.33 79.64 24.33 79.64 15.54 69.47 12.75 69.47"/><polygon class="cls-89" points="22.33 59.64 12.75 69.47 15.54 69.47 24.33 59.64 22.33 59.64"/><path class="cls-90" d="M15,128.83l33,8.42L44.21,192l28.44,39.63,57-13.05-.84-.6-56,12.79L44.75,192l3.67-55S17.08,128.9,15,128.83Z"/><path class="cls-91" d="M130,30.5l28.57,19.83-29.66,31,10.71,46.17.88-.54L129.7,81.37l29.76-31S131.21,30.5,130,30.5Z"/><path class="cls-92" d="M311.5,93.67l-39.13,21.69v60.4l-70,31.39v-1.62l69.26-30,.06-60.37S310.42,93.21,311.5,93.67Z"/><path class="cls-93" d="M209.84,96.32c-2.59-3.4-1.69-4.18-2.51-7.49S202.71,76.08,202,75.67s-2.1-5.19-2.58-6.52-2.26-.18-2.28-.05-1.2.63-1.41.36-1.08-.49-1.11-.16-.63-.19-1-.9-.48.08.13,2.07,3.14,8.67,3.86,9.66,2.33,5.58,3.18,9.22a36.7,36.7,0,0,0,2.4,6.82Z"/><polygon class="cls-94" points="146.23 233.81 113.85 205.37 108.27 183.17 99.67 156.67 86.27 117.68 145.04 143.39 146.23 233.81"/><polygon class="cls-95" points="145.04 143.39 86.27 117.68 189.8 105.46 246.3 128.85 145.04 143.39"/><polygon class="cls-96" points="145.04 142.25 88.06 117.83 189.28 105.88 245.43 128.75 145.04 142.25"/><polygon class="cls-97" points="246.3 128.85 222.19 217.43 146.23 233.81 145.04 143.39 246.3 128.85"/><polygon class="cls-98" points="189.28 105.88 197.65 119.94 133.08 132 89.34 117.68 189.28 105.88"/><path class="cls-99" d="M172.33,122.83c3.13-.33,15.62-2.21,16.75-2.58s3.85-1.62,4.24-1.31a33.52,33.52,0,0,0-9.86-6.94c-5.25-2.12-15.32-3.87-24.85-2.5s-19.78,5.85-19.78,5.85Z"/><path class="cls-100" d="M245.43,128.75h-1.35s-21.33-1.5-22.25-1.42-18.5-1.33-18.5-1.33l-57.1,8.12L145,142.25Z"/><path class="cls-101" d="M165.33,132c2.89-.21,19.4-.75,21.95-.62s11.18,2,12.93,1.8,19.23-2.13,16.5-.91-70.74,9.85-71.21,9.92S162.48,132.21,165.33,132Z"/><polygon class="cls-102" points="145.04 143.39 191.78 122.83 127 103.17 86.27 117.48 145.04 143.39"/><polygon class="cls-103" points="191.78 123.28 144.79 143.52 144.5 142.75 191.78 122.83 191.78 123.28"/><polygon class="cls-104" points="144.73 143.25 145.04 142.52 86.27 117.48 86.27 117.68 144.73 143.25"/><polygon class="cls-105" points="173 84.5 189.28 105.88 245.43 128.75 228.5 86.83 173 84.5"/><polygon class="cls-106" points="245.43 128.75 246.3 128.85 228.83 86.38 228.5 86.83 245.43 128.75"/><polygon class="cls-107" points="173 84.5 228.5 86.83 228.83 86.38 173.06 84.26 173 84.5"/><path class="cls-108" d="M145.21,148.75c1.13-.75,12.28-1.46,21.08-1s35.8-.08,47-.83,14-.87,7.87,0-24,1.75-31.06,1.87-22.32,0-25.94,0-5.9,1.88-2.39,1.88,16.34,1.52,19.92,1.45,17.88-1.57,19.17-1.82-2.61,2-12.72,2.5a111.36,111.36,0,0,1-20.61-.68c-5.12-.57-8.09-.93-11.48,0s-7.77,1.68-4,1.8,9.5-.75,8.25,0-6,1-6.87,1-5.75.38-1.87,1.13,4.41,1.25,4.52,1.62-4.64-.87-6-1.25-2.87.39-1,1.32,1.25,2.84.5,2.51-2.69-3.71-3-3.46-2.41.25-1-.94,3.06-3,4.19-3.74,6.87-2.2,4-2.32-9,1.86-8.86,1.05S145.21,148.75,145.21,148.75Z"/><path class="cls-109" d="M221.08,243.5c.89.3,2.23-.84,7.54-1.62s22.05-2.25,29.17-2.6,8.84-.46,4.85-.5-15.22.67-19.6,1.06-13.74,1.43-16,1.66-4.11-.56-2-.78,9.66-1.8,11.89-2,11.41-.36,12.27-.32-2.12-.83-8.47-.43a78.38,78.38,0,0,0-12.51,1.66c-3,.61-4.74,1-7.07.74s-5.21-.34-2.94-.64,6-.23,5.08-.53a19.48,19.48,0,0,0-4.49-.06c-.54.06-3.63.18-1.44-.44s2.39-.91,2.36-1.1-2.63.73-3.38,1-1.87,0-1-.59,0-1.5-.34-1.28-.7,2-.94,1.91-1.55,0-.35.53,2.67,1.32,3.54,1.6,4.8.65,3.06.9-3-.38-2.76,0A22.63,22.63,0,0,0,221.08,243.5Z"/><path class="cls-110" d="M233.33,102.42c-1.16-2.68,2-3.92-10.92-1.25s-27.83,1-31.25-1.44-7.3-2.4-6.48-2.15,3.82.74,5.32,2.41,6.08,5.1,6.5,5.89-3.25-.62-3.83,0,9,5,13.17,6.2,19.58,6.83,23.75,8.42,10.42,5.17,11.67,5.5S235.5,107.42,233.33,102.42Z"/><path class="cls-111" d="M146,233.59s.82.34-.48-.22-15.39-13.28-16.24-14.24-16-13-15.41-13.76,12.29,10.94,15.35,12.82a77.87,77.87,0,0,1,10.15,8.45c.85,1,4.35,4.11,4.72,4.43s.31-.19-.25-1.31.38-.62.87.31,2,2.43,1.27,3.53"/><path class="cls-112" d="M168.67,302.73l-22.44-68.64.23-.8,22.62,68.64S169.51,302.65,168.67,302.73Z"/><path class="cls-113" d="M168.67,302.73l53.83-6.21s.34-.23,0-.25c-.95,0-53.21,6.27-53.31,6S168.67,302.73,168.67,302.73Z"/><path class="cls-114" d="M227.4,319.21s.22-.16-.18-1.92l-4.72-20.76s0-.19.15-.07,4.82,21.51,5,22.11S227.81,319.54,227.4,319.21Z"/><path class="cls-115" d="M241.76,256l-55.61-30.81s.5-.44.75-.32,54.89,30.6,55.16,31S241.76,256,241.76,256Z"/><path class="cls-116" d="M255.74,294.06l-14-38.06s.23-.34.3-.16,14,38,14,38l46.09-3.76,0,.11Z"/><path class="cls-117" d="M173.77,124.69c-3.37-.26-20-2.5-24.94-3.31s-13.5-3.87-17.5-5.75-7.44-2.94-7.75-2.75,1.69.75,2.5,1,5.71,2.5,7.06,3.19-.5,1.54-2.06,1.71-4-1-4.81-.58-.56,1.63-1.31,1.63-8.94-.87-10-.87.06.5,1.56.56,8.19.63,8.87.81,2.13.62,1.44.81-4.81,1.42-4.75,1.71a1.72,1.72,0,0,0,2.06,1c1.37-.25,10.13-2,11.22-1.81s-1.6,1.51-1.47,2.07,1.31,4.31.69,5.25a2.66,2.66,0,0,0,.79,3.31c1,.81,3.85,2.69,3.66,2.31s-3.44-2.35-3.66-3.36a6.39,6.39,0,0,1,0-3.07c.28-.87-.28-2.62,0-2.5a12.38,12.38,0,0,0,3.66-.84c.62-.35,1.37-2.37,2.24-2.33s1.57-1.15,2.22-.65a51.05,51.05,0,0,0,6.34,2.69,4.26,4.26,0,0,0,2.31-.45c.13-.24-2.06.24-2.5,0s-4.48-1.8-5.15-2.3-1.12-1.19-.11-1,9.19,1.48,10.94,1.71,9.81,1.79,11.69,2.1S177.79,125,173.77,124.69Z"/><path class="cls-118" d="M147.66,193.84c.95-.29,20.46-3.23,26.91-4.34s34.38-8.63,38.74-9.43,3.2.16-4,1.89-21.37,5.83-23.62,6.67-2.85,2.33,1.05,1.8a96,96,0,0,0,11.08-2.28c1.28-.43,5.16-1.72,4.59-1.14s-5.62,2.24-7.86,2.63-10,2.83-10.42,3.43-8.63,2.32-11.06,2-6-.85-5.12-1.84,3.61-2.42-4.73-.77S142.91,195.3,147.66,193.84Z"/><path class="cls-119" d="M119.53,187.44c2-1.07,16-.57,17.67-1.69s-18.38.63-23.63-3.75a19.94,19.94,0,0,0-2.13-1.59,13.84,13.84,0,0,0,.21-1.69c.17-2.3-3.19-4.51-4.71-8.09a52.87,52.87,0,0,1-2.46-7.79c1.67,1.92,2.5,3.67,8.33,3.17s14.13,1.46,17.13.63,1.62-4.51-11.38-4-17.33-7-15.67-7.65,10.42-1,9.83-2.39-12.08-2.47-13-4.07,1.08-2.26-1.17-3.26-1.83-.58.08,5.5,6.58,16.5,6.75,17.83.33,3.58,1.25,4,1.53,2.42,1.6,4.17a11,11,0,0,0,.88,4.33,23.71,23.71,0,0,0,.93,4.8c1.5,5.75,4,17.51,4.37,19s2.06.73,2.5,0-2.1-8.63.33-8.76,15.49,2.48,18.46,2.62-2.12-1.58-10.64-5S117.49,188.51,119.53,187.44Z"/><path class="cls-120" d="M146.61,233.63s4.72,12.72,11,18.22,6.62-12.57,12.25-16.95,16.67-8,12.18-8.25-35.07,5.56-35.55,6.65"/><path class="cls-121" d="M146.6,232.83l71.06-14.28s-2.83-1.77-14.75-1.29c-4.89.19-6.22-3.14-11.13-3.39s-20.6-7.25-33.69-7.72a118.19,118.19,0,0,0-12.27,1l.78,25.69"/><path class="cls-122" d="M222.34,217.27s1.07.6-1.84,1.29-26.84,5-29.73,5.65-41.66,9.9-43.1,9.9-1.5-.35-1.5-.35l.06-2.58s21.1-4.46,25.77-4.52a89.46,89.46,0,0,0,16.75-2.56C191.42,223.25,221.6,217.15,222.34,217.27Z"/><path class="cls-123" d="M196.81,192c-3.32-.14-5.7.78-7.53,3.52-1.88-5.06-6.9-7.89-12.17-8.11-7.2-.3-15,6.18-15.28,14.13s4.47,15.37,11.67,15.67c5.27.22,12.47-2.2,14.69-7.08,1.09,1.39,4.57,3,7.89,3.14,5.32.22,9.79-4.36,10-10.23S202.13,192.26,196.81,192Z"/><circle class="cls-124" cx="194.85" cy="202.58" r="8.59" transform="matrix(0.04, -1, 1, 0.04, -14.98, 389.6)"/><circle class="cls-125" cx="195.85" cy="201.58" r="8.59" transform="translate(-13.02 389.63) rotate(-87.82)"/><circle class="cls-126" cx="192.4" cy="202.94" r="4.2" transform="matrix(0.04, -1, 1, 0.04, -17.69, 387.51)"/><circle class="cls-127" cx="191.78" cy="202.94" r="1.63" transform="matrix(0.04, -1, 1, 0.04, -18.41, 386.75)"/><circle class="cls-128" cx="177.17" cy="201.91" r="11.62" transform="translate(-31.32 371.29) rotate(-87.82)"/><circle class="cls-129" cx="178.17" cy="200.91" r="11.62" transform="translate(-29.35 371.32) rotate(-87.82)"/><circle class="cls-130" cx="181.22" cy="202.94" r="6.06" transform="translate(-28.45 376.33) rotate(-87.82)"/><circle class="cls-131" cx="182.01" cy="203.11" r="2.53" transform="translate(-27.84 377.3) rotate(-87.83)"/><path class="cls-132" d="M127.59,201.33A6.28,6.28,0,0,0,126,200v-.33c0-.25-.36-.29-.36-.29s0,.15,0,.41a1.33,1.33,0,0,0-1.76.35,7,7,0,0,0-.8,2.64,1,1,0,0,1,.78.25,15.26,15.26,0,0,1,1.25,1.51.79.79,0,0,1,.9-.22c0,2.3,0,4.56,0,4.7s-.07.68-.48.43-.5-1-.47-1.73c0-.4-.1-.67-.31-.74s-.15,1.17-.11,1.54.54,1.84,1.2,1.91c.51.06.61-.79.61-.79l0-5a7.4,7.4,0,0,1,1.09,1.75s.31-1.55,1.35,0A8.74,8.74,0,0,0,127.59,201.33Z"/><path class="cls-133" d="M119,199.5c.48-1.11.11-3,.16-3.94L115,193.77a34.88,34.88,0,0,0,1.34,4.65,5.31,5.31,0,0,0,1.34,1.53c0,1,.37,2.92.38,3.78l-.48-.11c-.71-.16-.48.3-.48.3s2,1.49,2.23,1.59.23-.23,0-.52-.68-.81-.92-1.07c0-.63-.31-2.67-.29-3.71C118.49,200.27,118.8,200,119,199.5Z"/><polygon class="cls-134" points="138.23 209 138.99 209.48 137.58 205.84 136.21 207.75 136.98 208.23 137.03 216.47 135.33 215.28 135.28 207.22 135.24 207.11 135.92 207.55 134.63 204.04 133.37 205.91 134.01 206.32 134.06 214.4 133.17 213.77 133.17 214.73 139.36 219.13 139.36 218.09 138.28 217.34 138.23 209"/><path class="cls-135" d="M128.95,198.76c-.17-.11,0-.07-7.07-4,0,0-.38-.1-.37.71s1,14,1,14a1.73,1.73,0,0,0,.63,1.16c.58.43,6.11,4.23,6.11,4.23s.49.27.48-.2l-.1-14.83A1.51,1.51,0,0,0,128.95,198.76Zm.28,14.8c0,.41-.43.18-.43.18s-4.8-3.28-5.31-3.66a1.53,1.53,0,0,1-.55-1s-.44-11.24-.44-11.95a3.62,3.62,0,0,0-.19-1.19c6.34,3.48,6.44,3.62,6.26,3.5a1.35,1.35,0,0,1,.57,1Z"/><path class="cls-136" d="M120.19,193.82c-.53-.37-6.3-3-6.3-3s-.32-.08-.31.66,1.53,12.6,1.53,12.6a1.58,1.58,0,0,0,.53,1.05l5.66,4.22s.42.23.41-.2l-1-14.31A1.39,1.39,0,0,0,120.19,193.82Zm1.12,14.28c0,.38-.37.18-.37.18s-4.54-3.39-5-3.73a1.41,1.41,0,0,1-.47-.93S114,193.06,114,192.4s.28-.59.28-.59,5.14,2.29,5.6,2.61a1.21,1.21,0,0,1,.49.89Z"/><path class="cls-137" d="M140.14,204.61c-.76-.49-9.25-4.66-9.25-4.66s-.46-.13-.45.74.1,14.44.1,14.44a1.88,1.88,0,0,0,.76,1.29c.7.5,9.15,6,9.15,6s.6.32.59-.18l-.11-16.41A1.67,1.67,0,0,0,140.14,204.61Zm.32,16.28c0,.44-.52.16-.52.16s-7.56-4.82-8.18-5.26a1.68,1.68,0,0,1-.67-1.14S131,202.6,131,201.83s.4-.65.4-.65,7.6,3.68,8.26,4.11a1.47,1.47,0,0,1,.69,1.09Z"/><path class="cls-138" d="M145.77,143.26a4.79,4.79,0,0,1-1.39-.15c.23,2.37,1.59,90.49,1.59,90.49s.14.43.25.5.39-.28.39-.28l-1-78S145.62,143.81,145.77,143.26Z"/><path class="cls-139" d="M157,112.58s-28.17,16.15-29.33,16.59a4.55,4.55,0,0,0-1.24.78,17.19,17.19,0,0,0-1.34,1.14,18.53,18.53,0,0,1-1.71,2.31c-.5.31-1,5.73-.62,9.1s1.69,19.58,2.29,23a25.61,25.61,0,0,1,.25,6.54s-1.95-1.29-2.46-1-1.57-.77-2-.83-1.62.33-1.87,0-.37-1.24-.62-1.61-1.18-8.29-1.69-12.08c-1-7.41-3-25.67-2.94-26.45s1-1.11,1.95-1.61,3.8-2,3.8-2,.69-.81,1.19-.75,2.12-1,2.37-1.12,13.56-6.59,14.94-7.39,4.62-2.86,4.87-3,.38.13.66.06,5-3.62,6.13-4S157.81,112.1,157,112.58Z"/><path class="cls-140" d="M157.53,111.74s-29.88,17-31,17.43c-.63.24-.78,0-1.1.2a2.65,2.65,0,0,0-.79,1.13s-1.93,2.11-2.26,2.32c-.5.31-.37,8.68,0,12.06s1.67,17,2.27,20.37a32.44,32.44,0,0,1,.48,6.33s-2.35-1.33-2.86-1.08-1.12-.69-1.5-.75-1.38.44-1.63.06-1.5-1.54-1.75-1.92-1.18-8.29-1.69-12.08c-1-7.41-3-25.67-2.94-26.45s1-1.11,1.95-1.61,3.8-2,3.8-2,.69-.81,1.19-.75,2.12-1,2.37-1.12,13.56-6.59,14.94-7.39,4.62-2.86,4.87-3,.38.13.66.06,6.59-4.5,7.72-4.87,5.12-2.69,6.12-2.69a23.65,23.65,0,0,0,4.19-.37c10-1.88,8.59-9.38,9.44-9.38,3.75,0,3.26,3.82,3.5,3.87,1.75.38,3.25-1,3.75-.65s-3.93,6.71-6.75,9.28c-3.21,2.92-6.81.94-8,1.12A24,24,0,0,0,157.53,111.74Z"/><path class="cls-141" d="M185.93,197.55a1.56,1.56,0,0,0-3,.54C182.93,199.63,187.16,200.71,185.93,197.55Z"/><path class="cls-142" d="M181.33,205.07a.77.77,0,0,0-1.49.27C179.84,206.1,181.94,206.64,181.33,205.07Z"/><path class="cls-143" d="M191.71,204.4a.51.51,0,0,0-1,.18C190.72,205.08,192.11,205.44,191.71,204.4Z"/><path class="cls-144" d="M195.47,198.91a1.28,1.28,0,0,0-2.46.44C193,200.62,196.48,201.5,195.47,198.91Z"/></g></g></svg>