<svg xmlns="http://www.w3.org/2000/svg" viewBox="0 0 132.02 132.03"><defs><style>.cls-1{fill:#668904;}.cls-2{fill:#7aa814;}.cls-3{fill:#4c6005;}.cls-4{fill:#3c4905;}.cls-5{fill:#fff;}</style></defs><title>logo-green</title><g id="Layer_2" data-name="Layer 2"><g id="Layer_1-2" data-name="Layer 1"><path class="cls-1" d="M66,92.55A66,66,0,0,1,3,46.34a66,66,0,1,0,126,0A66,66,0,0,1,66,92.55Z"/><path class="cls-2" d="M66,92.55a66,66,0,0,0,63-46.2,66,66,0,0,0-126,0A66,66,0,0,0,66,92.55Z"/><polygon class="cls-3" points="33.6 39.98 48.63 25.02 36.22 77.58 21.19 92.55 33.6 39.98"/><rect class="cls-4" x="46.55" y="26.67" width="54.01" height="63.97" transform="translate(-0.42 116.77) rotate(-76.72)"/><rect class="cls-5" x="31.53" y="41.62" width="54.01" height="63.97" transform="translate(-26.55 113.67) rotate(-76.72)"/><polygon class="cls-3" points="95.86 54.66 110.89 39.73 98.48 92.3 83.45 107.25 95.86 54.66"/></g></g></svg>