<svg xmlns="http://www.w3.org/2000/svg" viewBox="0 0 2739.13 1302.96"><defs><style>.cls-1{fill:#a83d09;}.cls-2{fill:#e05a19;}.cls-3{fill:#4d8019;}.cls-4{fill:#67a821;}.cls-5{fill:#304f0f;}.cls-6{fill:#7dbadd;}.cls-7{fill:#2b3a42;}.cls-8{fill:#638da5;}.cls-9{fill:#f9f1e3;}.cls-10{fill:#fff;}.cls-11{fill:#ffa433;}.cls-12{fill:#89dd36;}.cls-13{fill:#f99532;}.cls-14{fill:#32cff9;}.cls-15{fill:#0090ea;}.cls-16{fill:#891500;}.cls-17{fill:#a3e7f9;}.cls-18{fill:#f9f9f9;}</style></defs><title>truck</title><g id="Layer_2" data-name="Layer 2"><g id="Ñëîé_1" data-name="Ñëîé 1"><path class="cls-1" d="M457.64,27.71s-351.06,257-401.82,307.77S0,1086.61,25.38,1101.83s497.36-20.3,497.36-20.3Z"/><path class="cls-2" d="M21.86,524.44c7.42-97.85,18.56-173.55,34-189C106.58,284.73,457.64,27.72,457.64,27.72L479.34,379C424.59,399.4,75.19,528.47,21.86,524.44Z"/><polygon class="cls-3" points="478 1163.53 1703.64 1163.53 1734.31 0 457.64 27.71 478 1163.53"/><polygon class="cls-4" points="1705.46 1079 1734.31 0 457.64 27.71 473.6 979.24 549.4 175.52 1666.48 147.81 1654.49 1070.51 1705.46 1079"/><path class="cls-5" d="M14.14,1085.83s1719-74.35,1723.82-41.3-4.78,107.39-19.12,123.91-1699.92,33-1714.26-8.26S14.14,1085.83,14.14,1085.83Z"/><path class="cls-5" d="M719.95,1174.85a211.6,211.6,0,0,1-32.59-112.45c0-116.64,93.33-211.2,208.46-211.2s208.45,94.55,208.45,211.2a211.61,211.61,0,0,1-32.59,112.45Z"/><ellipse class="cls-6" cx="887.41" cy="1122.88" rx="176.94" ry="180.08"/><circle class="cls-7" cx="883.28" cy="1130.16" r="172.8"/><circle class="cls-8" cx="883.28" cy="1130.16" r="120.68"/><circle class="cls-9" cx="883.28" cy="1130.16" r="96"/><ellipse class="cls-10" cx="889.8" cy="1124.36" rx="56.04" ry="55.32"/><circle class="cls-7" cx="883.28" cy="1130.16" r="49.52"/><circle class="cls-5" cx="650.72" cy="533.72" r="133.59"/><circle class="cls-1" cx="650.72" cy="533.72" r="89.06"/><circle class="cls-2" cx="650.72" cy="533.72" r="71.64"/><path class="cls-8" d="M629.42,566.63S157,1073.9,141.52,1077.77s-81.32,0-81.32,0L590.7,504.68Z"/><circle class="cls-11" cx="629.42" cy="535.66" r="50.34"/><path class="cls-12" d="M1145.65,685.1c18.75-22.83,24.27-54,23.14-83.53A221.12,221.12,0,0,0,1145.95,512c-26.12-52.58-72.85-93.1-125.44-119.19s-110.94-38.68-169.29-45.23A307.81,307.81,0,0,0,1057.44,685c22,7.4,46.68,12.17,68,2.91Z"/><path class="cls-3" d="M1164,700.76c-8.31,0-312.78-353.22-312.78-353.22s323.86,328.3,332.17,339.38S1164,700.76,1164,700.76Z"/><path class="cls-3" d="M1122.47,642.61c-8.31-11.08-24.92-168.91-24.92-168.91l-2.77,138.45Z"/><polygon class="cls-3" points="1044.94 548.46 1025.56 412.78 1031.1 537.39 1044.94 548.46"/><polygon class="cls-3" points="1094.78 612.15 939.72 581.69 1100.32 631.53 1094.78 612.15"/><polygon class="cls-3" points="1044.94 548.46 887.11 501.39 1031.1 537.39 1044.94 548.46"/><path class="cls-12" d="M1173.58,757.14c28.22,8.76,59.17,2.12,86.09-10.05a221.12,221.12,0,0,0,74.39-54.95c38.85-44,58.77-102.57,63.11-161.12s-6-117.34-21.93-173.85a307.81,307.81,0,0,0-234.8,318.22c1.44,23.17,6.33,47.82,22.93,64Z"/><path class="cls-3" d="M1166,780c-3.13-7.69,209.24-422.87,209.24-422.87s-182,423.74-189.1,435.61S1166,780,1166,780Z"/><path class="cls-3" d="M1204.19,719.64c7.13-11.87,147-86.76,147-86.76L1222,682.51Z"/><polygon class="cls-3" points="1262.16 612.34 1380.52 543.23 1267.2 595.34 1262.16 612.34"/><polygon class="cls-3" points="1221.96 682.51 1191.71 527.41 1206.1 694.95 1221.96 682.51"/><polygon class="cls-3" points="1262.16 612.34 1246.25 448.41 1267.2 595.34 1262.16 612.34"/><polygon class="cls-13" points="220.37 249.57 220.37 587.2 181.72 597.37 173.59 292.28 220.37 249.57"/><polygon class="cls-13" points="122.74 310.59 122.74 621.77 80.03 638.04 75.96 353.3 122.74 310.59"/><polygon class="cls-13" points="315.96 188.55 315.96 526.18 277.32 536.35 269.18 231.26 315.96 188.55"/><polygon class="cls-13" points="409.52 129.57 409.52 467.2 370.88 477.37 362.74 172.28 409.52 129.57"/><path class="cls-2" d="M434,544.13S99.77,679.89,82.36,700.78s-22.16,377-22.16,377,39.56-342.18,60.45-356.11S434,544.13,434,544.13Z"/><polygon class="cls-14" points="1798.1 285.74 2155.57 319.61 2306.08 726 1741.65 658.26 1798.1 285.74"/><path class="cls-15" d="M2222.75,655.59s-128.76-95-138-85.84-15.33,39.85-15.33,39.85L2222.75,674Z"/><path class="cls-15" d="M2115.45,493.11s-46,153.28-61.31,153.28-30.66-15.33-30.66-15.33L2094,477.79S2115.45,477.79,2115.45,493.11Z"/><path class="cls-1" d="M2266.3,660.72s-140.87-378.2-121.07-384.8,230.92,397.72,204.52,410.92S2266.3,660.72,2266.3,660.72Z"/><path class="cls-1" d="M2145.22,275.92s-385.58-29.1-411-10.91-54.52,593.5-54.52,593.5L1796,654.22s3.64-345.57,43.65-341.93S2178,341.39,2178,341.39Z"/><path class="cls-1" d="M1679.66,858.5c7-62.2,20.85-121.38,48.78-177.71,7.53-15.19,17.56-26.69,26.92-38.21,459.67,6.28,916.6,39,949.91,85.58,64,89.63-153.66,345.73-153.66,345.73s-416,12-852,20C1696.33,1016.21,1671.13,934.09,1679.66,858.5Z"/><path class="cls-2" d="M1688.7,688.44c4.8-20.81-3-38.1,6.4-49.62,459.67,6.28,976.86,42.72,1010.16,89.34,17.31,24.23,13.66,60.77-.34,101-52.28-29.7-178.41-85-415.28-98.74-115.12-6.69-362.37-9.33-602.54-8.35C1692.1,708.86,1685.47,702.45,1688.7,688.44Z"/><path class="cls-16" d="M1607.95,1036.51s1039.26-125.6,1042.15-69.78-2.89,181.42-11.56,209.34-1027.7,55.82-1036.37-14S1607.95,1036.51,1607.95,1036.51Z"/><path class="cls-16" d="M2072.06,1174.85a211.61,211.61,0,0,1-32.59-112.45c0-116.64,93.33-211.2,208.46-211.2s208.45,94.55,208.45,211.2a211.6,211.6,0,0,1-32.59,112.45Z"/><ellipse class="cls-6" cx="2239.53" cy="1122.88" rx="176.94" ry="180.08"/><circle class="cls-7" cx="2235.39" cy="1130.16" r="172.8"/><circle class="cls-8" cx="2235.39" cy="1130.16" r="120.68"/><circle class="cls-9" cx="2235.39" cy="1130.16" r="96"/><ellipse class="cls-10" cx="2241.92" cy="1124.36" rx="56.04" ry="55.32"/><circle class="cls-7" cx="2235.39" cy="1130.16" r="49.52"/><path class="cls-17" d="M2705.27,728.16s-91.67,93.73-31.82,164.8C2673.44,893,2796.93,795.25,2705.27,728.16Z"/><circle class="cls-18" cx="2707.1" cy="777.01" r="22.44"/></g></g></svg>